# xmcd CD database file
#
# Track frame offsets:
#	150
#	15505
#	27151
#	39480
#	56003
#	67657
#	78567
#	94038
#	106219
#	116819
#	138687
#	152726
#
# Disc length: 2201 seconds
#
# Revision: 1
# Processed by: cddbd v1.5.2PL0 Copyright (c) Steve Scherf et al.
# Submitted via: CDex 1.70beta2
#
DISCID=9408970c
DTITLE=Various Artist - Open Country (disk 2)
DYEAR=2007
DGENRE=Country
TTITLE0=Juice Newton - Queen of Hearts
TTITLE1=George Jones - She Thinks I Still Care
TTITLE2=Linda Ronstadt - I Can't Help It (If I'm Still in Love with You)
TTITLE3=Kenny Rogers - Lucille
TTITLE4=Glen Campbell and Bobbie Gentry - All I Have to Do is Dream
TTITLE5=Willie Nelson - Hello Walls
TTITLE6=Crystal Gayle - When I Dream
TTITLE7=Glen Campbell - Galveston
TTITLE8=Jessi Colter - What's Happened to Blue Eyes
TTITLE9=The Nitty Gritty Dirt Band - Will the Circle be Unbroken
TTITLE10=Asleep at the Wheel - Miles and Miles of Texas
TTITLE11=Roy Clark - The Tips of My Fingers
EXTD=YEAR: 2007
EXTT0=
EXTT1=
EXTT2=
EXTT3=
EXTT4=
EXTT5=
EXTT6=
EXTT7=
EXTT8=
EXTT9=
EXTT10=
EXTT11=
PLAYORDER=
